<?xml version="1.0"?><svg version="1.1" id="Layer_1" xmlns="http://www.w3.org/2000/svg" x="0" y="0" viewBox="0 0 100 100" xml:space="preserve"><g><path d="M37.667 13.235C21.624 13.235 11 20.666 11 36.203c0 6.451 1.837 11.501 5.128 15.205-.77 3.656-1.815 7.041-2.921 8.995-.483.854.306 1.914 1.252 1.656l.03-.008c2.674-.755 6.002-2.772 9.27-5.332 3.924 1.639 8.619 2.452 13.907 2.452 16.043 0 26.667-7.431 26.667-22.968 0-15.537-10.624-22.968-26.666-22.968z" fill="#f4e6c8" stroke="#333" stroke-width="3.5" stroke-miterlimit="10"/><g><path d="M26.891 45.828c.079 0 .197-.079.236-.197 2.403-6.382 5.87-15.72 8.234-22.142.709-.079 2.522-.079 5.398-.079 2.285 6.619 5.398 16.035 7.565 22.378l2.009.158c0 1.064 0 2.206-.039 3.309H39.223c0-1.103 0-2.246.039-3.349l1.93-.118c.079 0 .158-.079.118-.197-.197-.591-.551-1.852-.788-2.443-.039-.158-.118-.197-.276-.197l-7.289.079c-.197.867-.512 1.97-.67 2.797l2.167.118c0 1.064 0 2.206-.039 3.309h-9.416c0-1.103.039-2.246.079-3.309l1.813-.117zm9.771-15.089c-.906 2.915-1.851 6.028-2.679 8.707-.039.157-.039.236.079.236h5.516c-.827-2.6-1.773-5.831-2.718-8.943h-.198z" fill="#849b87"/></g></g><g><path d="M62.333 37.902C78.376 37.902 89 45.333 89 60.87c0 6.451-1.837 11.501-5.128 15.205.77 3.656 1.815 7.041 2.921 8.995.483.854-.306 1.914-1.252 1.656l-.03-.008c-2.674-.755-6.002-2.772-9.27-5.332-3.924 1.639-8.619 2.452-13.907 2.452-16.043 0-26.667-7.431-26.667-22.968 0-15.537 10.624-22.968 26.666-22.968z" fill="#f4e6c8" stroke="#333" stroke-width="3.5" stroke-miterlimit="10"/><path d="M66.217 56.266c.084-.463.316-.821.694-1.073.274-.189.558-.284.852-.284.126 0 .252.011.379.032l.757.189c.4.084.694.305.884.663.126.232.189.463.189.694 0 .147-.032.295-.095.442-.042.126 0 .21.126.252 1.851.652 3.314 1.662 4.387 3.03 1.073 1.368 1.61 2.956 1.61 4.765a9.824 9.824 0 0 1-.473 3.061 9.52 9.52 0 0 1-1.452 2.761c-.652.873-1.557 1.652-2.714 2.335s-2.514 1.204-4.071 1.562a1.79 1.79 0 0 1-.568.095 2.51 2.51 0 0 1-1.01-.221 2.665 2.665 0 0 1-1.231-1.073l-.158-.221a1.219 1.219 0 0 1-.189-.631c0-.168.042-.336.126-.505.189-.399.494-.642.915-.726 2.293-.505 4.008-1.362 5.144-2.572 1.136-1.21 1.704-2.561 1.704-4.055 0-.967-.263-1.835-.789-2.604-.526-.768-1.283-1.373-2.272-1.815-.147-.063-.252-.021-.316.126-1.641 3.934-3.808 7.048-6.501 9.341a.36.36 0 0 0-.095.379c.021.126.052.252.095.379.063.189.095.379.095.568 0 .295-.074.579-.221.852a1.734 1.734 0 0 1-1.073.884l-.757.221a1.156 1.156 0 0 1-.931-.079 1.09 1.09 0 0 1-.584-.71c-.042-.105-.106-.137-.189-.095-1.683.821-3.293 1.231-4.828 1.231-1.262 0-2.299-.394-3.108-1.183-.81-.789-1.215-1.951-1.215-3.487 0-1.977.721-3.934 2.162-5.87 1.441-1.936 3.266-3.45 5.475-4.544a.405.405 0 0 0 .252-.347c.105-1.536.2-2.714.284-3.535 0-.147-.074-.221-.221-.221h-.789c-.863 0-2.135-.042-3.819-.126a1.911 1.911 0 0 1-1.325-.568c-.4-.399-.6-.873-.6-1.42a1.5 1.5 0 0 1 .536-1.168c.316-.295.673-.442 1.073-.442.063 0 .126.011.189.032 1.599.126 2.956.189 4.071.189h.978c.168 0 .252-.074.252-.221l.189-1.483v-.032c.063-.526.273-.967.631-1.325a1.784 1.784 0 0 1 1.262-.505h.536c.463.021.841.221 1.136.6.189.274.284.568.284.884 0 .126-.011.252-.032.379-.084.337-.169.8-.252 1.389-.021.063-.011.116.032.158a.215.215 0 0 0 .158.063c3.219-.126 6.154-.442 8.804-.947a2.13 2.13 0 0 1 .347-.032c.337 0 .642.106.915.316.379.295.568.684.568 1.168 0 .526-.168.989-.505 1.389a1.89 1.89 0 0 1-1.294.726c-2.672.4-5.786.694-9.341.884-.147 0-.232.074-.252.221a36.042 36.042 0 0 0-.189 2.398c0 .063.021.116.063.158.042.042.095.053.158.032 1.578-.336 3.093-.505 4.544-.505h.347c.151-.002.235-.076.256-.223zM54.604 69.552c.863 0 1.862-.305 2.998-.915.147-.063.2-.179.158-.347a49.81 49.81 0 0 1-.631-5.933c0-.042-.021-.074-.063-.095a.134.134 0 0 0-.126 0c-1.136.8-2.057 1.736-2.761 2.809-.705 1.073-1.057 2.051-1.057 2.935-.002 1.031.493 1.546 1.482 1.546zm6.343-9.183c-.147.042-.221.147-.221.316 0 1.725.105 3.356.316 4.892 0 .042.026.074.079.095.052.021.089.011.11-.032a17.921 17.921 0 0 0 3.787-5.681c.021-.063.016-.115-.016-.158-.032-.042-.079-.063-.142-.063a15.196 15.196 0 0 0-3.913.631z" fill="#849b87"/></g><metadata xmlns:d="https://loading.io/stock/">
<d:name>translator</d:name>
<d:tags>translator,translation,linguist,language,foreigner,grammar,text,context</d:tags>
<d:license>by</d:license>
<d:slug>xg85zv</d:slug>
</metadata></svg>